# xmcd
#
# Track frame offsets:
#	150
#	22454
#	39051
#	58283
#	74315
#	87955
#	113258
#	138044
#	159041
#	173393
#	198032
#	226603
#
# Disc length: 3287 seconds
#
# Revision: 12
# Processed by: cddbd v1.5.2PL0 Copyright (c) Steve Scherf et al.
# Submitted via: Jack! The Knife 20 Magnifico
#
DISCID=810cd50c
DTITLE=Stormwitch - Dance With The Witches
DYEAR=2002
DGENRE=Heavy Metal
TTITLE0=Intro - The Man Of Miracles
TTITLE1=Dance With The Witches
TTITLE2=Jeanne d'Arc
TTITLE3=The Knights Of Lights
TTITLE4=The Devil's Bride
TTITLE5=Nothing More
TTITLE6=The House Of Usher
TTITLE7=The King Of Terrors
TTITLE8=Proud And Honest
TTITLE9=My World
TTITLE10=The Altar Of Love
TTITLE11=Together
EXTD=
EXTT0=
EXTT1=
EXTT2=
EXTT3=
EXTT4=
EXTT5=
EXTT6=
EXTT7=
EXTT8=
EXTT9=
EXTT10=
EXTT11=
PLAYORDER=
